[Header]
FileType HTR
DataType HTRS
FileVersion 1
NumSegments 64
NumFrames 4
DataFrameRate 30
EulerRotationOrder ZYX
CalibrationUnits mm
RotationUnits Degrees
GlobalAxisofGravity Y
BoneLengthAxis Y
ScaleFactor 1.0
[SegmentNames&Hierarchy]
Hips	GLOBAL
Spine	Hips
Spine1	Spine
Spine2	Spine1
Neck	Spine2
Head	Neck
LeftEye	Head
RightEye	Head
LeftShoulder	Spine2
LeftArm	LeftShoulder
LeftForeArm	LeftArm
LeftHand	LeftForeArm
LeftHandThumb1	LeftHand
LeftHandThumb2	LeftHandThumb1
LeftHandThumb3	LeftHandThumb2
LeftHandThumb4	LeftHandThumb3
LeftHandIndex1	LeftHand
LeftHandIndex2	LeftHandIndex1
LeftHandIndex3	LeftHandIndex2
LeftHandIndex4	LeftHandIndex3
LeftHandMiddle1	LeftHand
LeftHandMiddle2	LeftHandMiddle1
LeftHandMiddle3	LeftHandMiddle2
LeftHandMiddle4	LeftHandMiddle3
LeftHandRing1	LeftHand
LeftHandRing2	LeftHandRing1
LeftHandRing3	LeftHandRing2
LeftHandRing4	LeftHandRing3
LeftHandPinky1	LeftHand
LeftHandPinky2	LeftHandPinky1
LeftHandPinky3	LeftHandPinky2
LeftHandPinky4	LeftHandPinky3
RightShoulder	Spine2
RightArm	RightShoulder
RightForeArm	RightArm
RightHand	RightForeArm
RightHandPinky1	RightHand
RightHandPinky2	RightHandPinky1
RightHandPinky3	RightHandPinky2
RightHandPinky4	RightHandPinky3
RightHandRing1	RightHand
RightHandRing2	RightHandRing1
RightHandRing3	RightHandRing2
RightHandRing4	RightHandRing3
RightHandMiddle1	RightHand
RightHandMiddle2	RightHandMiddle1
RightHandMiddle3	RightHandMiddle2
RightHandMiddle4	RightHandMiddle3
RightHandIndex1	RightHand
RightHandIndex2	RightHandIndex1
RightHandIndex3	RightHandIndex2
RightHandIndex4	RightHandIndex3
RightHandThumb1	RightHand
RightHandThumb2	RightHandThumb1
RightHandThumb3	RightHandThumb2
RightHandThumb4	RightHandThumb3
LeftUpLeg	Hips
LeftLeg	LeftUpLeg
LeftFoot	LeftLeg
LeftToeBase	LeftFoot
RightUpLeg	Hips
RightLeg	RightUpLeg
RightFoot	RightLeg
RightToeBase	RightFoot
[BasePosition]
Hips	0	0	0	0	0	0	1
Spine	0	0	0	0	0	0	1
Spine1	0	0	0	0	0	0	1
Spine2	0	0	0	0	0	0	1
Neck	0	0	0	0	0	0	1
Head	0	0	0	0	0	0	1
LeftEye	0	0	0	0	0	0	1
RightEye	0	0	0	0	0	0	1
LeftShoulder	0	0	0	0	0	0	1
LeftArm	0	0	0	0	0	0	1
LeftForeArm	0	0	0	0	0	0	1
LeftHand	0	0	0	0	0	0	1
LeftHandThumb1	0	0	0	0	0	0	1
LeftHandThumb2	0	0	0	0	0	0	1
LeftHandThumb3	0	0	0	0	0	0	1
LeftHandThumb4	0	0	0	0	0	0	1
LeftHandIndex1	0	0	0	0	0	0	1
LeftHandIndex2	0	0	0	0	0	0	1
LeftHandIndex3	0	0	0	0	0	0	1
LeftHandIndex4	0	0	0	0	0	0	1
LeftHandMiddle1	0	0	0	0	0	0	1
LeftHandMiddle2	0	0	0	0	0	0	1
LeftHandMiddle3	0	0	0	0	0	0	1
LeftHandMiddle4	0	0	0	0	0	0	1
LeftHandRing1	0	0	0	0	0	0	1
LeftHandRing2	0	0	0	0	0	0	1
LeftHandRing3	0	0	0	0	0	0	1
LeftHandRing4	0	0	0	0	0	0	1
LeftHandPinky1	0	0	0	0	0	0	1
LeftHandPinky2	0	0	0	0	0	0	1
LeftHandPinky3	0	0	0	0	0	0	1
LeftHandPinky4	0	0	0	0	0	0	1
RightShoulder	0	0	0	0	0	0	1
RightArm	0	0	0	0	0	0	1
RightForeArm	0	0	0	0	0	0	1
RightHand	0	0	0	0	0	0	1
RightHandPinky1	0	0	0	0	0	0	1
RightHandPinky2	0	0	0	0	0	0	1
RightHandPinky3	0	0	0	0	0	0	1
RightHandPinky4	0	0	0	0	0	0	1
RightHandRing1	0	0	0	0	0	0	1
RightHandRing2	0	0	0	0	0	0	1
RightHandRing3	0	0	0	0	0	0	1
RightHandRing4	0	0	0	0	0	0	1
RightHandMiddle1	0	0	0	0	0	0	1
RightHandMiddle2	0	0	0	0	0	0	1
RightHandMiddle3	0	0	0	0	0	0	1
RightHandMiddle4	0	0	0	0	0	0	1
RightHandIndex1	0	0	0	0	0	0	1
RightHandIndex2	0	0	0	0	0	0	1
RightHandIndex3	0	0	0	0	0	0	1
RightHandIndex4	0	0	0	0	0	0	1
RightHandThumb1	0	0	0	0	0	0	1
RightHandThumb2	0	0	0	0	0	0	1
RightHandThumb3	0	0	0	0	0	0	1
RightHandThumb4	0	0	0	0	0	0	1
LeftUpLeg	0	0	0	0	0	0	1
LeftLeg	0	0	0	0	0	0	1
LeftFoot	0	0	0	0	0	0	1
LeftToeBase	0	0	0	0	0	0	1
RightUpLeg	0	0	0	0	0	0	1
RightLeg	0	0	0	0	0	0	1
RightFoot	0	0	0	0	0	0	1
RightToeBase	0	0	0	0	0	0	1
[Hips]
63	-0.4875598848	1034.111938	16.07203674	-3.432522297	-5.557695389	-3.353684425	1.0
64	-0.01929715276	1034.08667	15.64487267	-3.436514378	-5.52470541	-3.368907213	1.0
65	0.4528621137	1034.061279	15.20919323	-3.437735558	-5.492243767	-3.384994507	1.0
66	0.9230731726	1034.035889	14.7777729	-3.440342188	-5.459517956	-3.400649309	1.0
[Spine]
63	0	101.8159943	1.315000057	3.319079638	1.364159822	2.847581148	1.0
64	0	101.8159943	1.315000057	3.326018572	1.364426613	2.841376781	1.0
65	0	101.8159943	1.315000057	3.333485603	1.364691973	2.835268259	1.0
66	0	101.8159943	1.315000057	3.340688705	1.364958048	2.829111814	1.0
[Spine1]
63	0	100.8349991	-10.00800037	1.098353863	0.2970941067	1.583279371	1.0
64	0	100.8349991	-10.00800037	1.109476328	0.2969099283	1.576998115	1.0
65	0	100.8349991	-10.00800037	1.121268272	0.2967087626	1.57065165	1.0
66	0	100.8349991	-10.00800037	1.132725596	0.2965160608	1.56433785	1.0
[Spine2]
63	0	91	-13.73399925	1.073092699	0.3138272464	1.590993643	1.0
64	0	91	-13.73399925	1.08424139	0.3136470318	1.584263563	1.0
65	0	91	-13.73399925	1.096059442	0.3134495318	1.577478647	1.0
66	0	91	-13.73399925	1.107542872	0.3132606447	1.570721149	1.0
[Neck]
63	0	166.7169952	-25.16200066	6.028295517	-0.1066382304	0.3935471475	1.0
64	0	166.7169952	-25.16200066	5.920082092	-0.112784043	0.4078420997	1.0
65	0	166.7169952	-25.16200066	5.811339855	-0.1190572456	0.4227300584	1.0
66	0	166.7169952	-25.16200066	5.702862263	-0.1252667457	0.4373215139	1.0
[Head]
63	0	96.17900085	16.84999847	-7.047385693	1.454875112	-0.2594589591	1.0
64	0	96.17900085	16.84999847	-7.169713497	1.424844027	-0.254817307	1.0
65	0	96.17900085	16.84999847	-7.297391891	1.394184828	-0.2498949468	1.0
66	0	96.17900085	16.84999847	-7.422394753	1.363839626	-0.2451129258	1.0
[LeftEye]
63	30.6760006	64.09500122	92.83599854	0	0	0	1.0
64	30.6760006	64.09500122	92.83599854	0	0	0	1.0
65	30.6760006	64.09500122	92.83599854	0	0	0	1.0
66	30.6760006	64.09500122	92.83599854	0	0	0	1.0
[RightEye]
63	-30.6760006	64.09500122	92.83499908	0	0	0	1.0
64	-30.6760006	64.09500122	92.83499908	0	0	0	1.0
65	-30.6760006	64.09500122	92.83499908	0	0	0	1.0
66	-30.6760006	64.09500122	92.83499908	0	0	0	1.0
[LeftShoulder]
63	45.70400238	109.4599991	-26.28000069	4.891505241	-16.69626045	-13.33297062	1.0
64	45.70400238	109.4599991	-26.28000069	4.891859055	-16.71006775	-13.30133915	1.0
65	45.70400238	109.4599991	-26.28000069	4.892185688	-16.72276115	-13.26946735	1.0
66	45.70400238	109.4599991	-26.28000069	4.89252615	-16.73601151	-13.23771572	1.0
[LeftArm]
63	105.923996	-5.24600029	-22.32099915	20.7336216	-3.541053295	-70.60009766	1.0
64	105.923996	-5.24600029	-22.32099915	20.51084709	-3.415126085	-70.74594116	1.0
65	105.923996	-5.24600029	-22.32099915	20.30213356	-3.293385029	-70.88497925	1.0
66	105.923996	-5.24600029	-22.32099915	20.08638954	-3.169550896	-71.02742767	1.0
[LeftForeArm]
63	278.414978	-0.0009999999311	0	2.854613967e-06	-1.828812599	-0.000210369617	1.0
64	278.414978	-0.0009999999311	0	2.550513273e-06	-1.705890656	-0.0002153716923	1.0
65	278.414978	-0.0009999999311	0	1.835015155e-06	-1.586118698	-0.0002200731979	1.0
66	278.414978	-0.0009999999311	0	1.325215635e-06	-1.464771748	-0.000224924981	1.0
[LeftHand]
63	283.2879944	0	0	-33.3840332	-5.068984032	-4.504859924	1.0
64	283.2879944	0	0	-33.25610733	-4.927693844	-4.496511459	1.0
65	283.2879944	0	0	-33.12714767	-4.787979603	-4.48683691	1.0
66	283.2879944	0	0	-32.998703	-4.647478104	-4.477824688	1.0
[LeftHandThumb1]
63	24.6609993	-15.75	26.8239994	-1.43382144	1.827565908	4.244497299	1.0
64	24.6609993	-15.75	26.8239994	-1.186969042	1.974460602	4.373250961	1.0
65	24.6609993	-15.75	26.8239994	-0.9364125133	2.123152971	4.511817455	1.0
66	24.6609993	-15.75	26.8239994	-0.6877080798	2.270946741	4.645477295	1.0
[LeftHandThumb2]
63	32.29800034	-18.64699936	18.64699936	19.51805878	16.57831764	17.56381226	1.0
64	32.29800034	-18.64699936	18.64699936	19.66319656	17.37026024	18.9542923	1.0
65	32.29800034	-18.64699936	18.64699936	19.81085014	18.19235611	20.39489555	1.0
66	32.29800034	-18.64699936	18.64699936	19.95724487	18.9993763	21.81043816	1.0
[LeftHandThumb3]
63	26.52600098	-15.31499958	15.31499958	-12.6613636	4.517234802	11.17120075	1.0
64	26.52600098	-15.31499958	15.31499958	-12.85544205	4.825219154	10.43219185	1.0
65	26.52600098	-15.31499958	15.31499958	-13.0504427	5.138665676	9.660081863	1.0
66	26.52600098	-15.31499958	15.31499958	-13.24498272	5.449381351	8.904521942	1.0
[LeftHandThumb4]
63	19.54599953	-11.28499985	11.28499985	0	0	0	1.0
64	19.54599953	-11.28499985	11.28499985	0	0	0	1.0
65	19.54599953	-11.28499985	11.28499985	0	0	0	1.0
66	19.54599953	-11.28499985	11.28499985	0	0	0	1.0
[LeftHandIndex1]
63	91.09299469	-5.170999527	22.60099792	0.2441569269	-0.9304128885	-7.645451546	1.0
64	91.09299469	-5.170999527	22.60099792	0.2114491165	-0.930085361	-7.708972931	1.0
65	91.09299469	-5.170999527	22.60099792	0.1780973375	-0.9300432801	-7.771840096	1.0
66	91.09299469	-5.170999527	22.60099792	0.1450675428	-0.9298584461	-7.835034847	1.0
[LeftHandIndex2]
63	36.76399994	0	0	-0.2676027119	1.748045802	-17.40598869	1.0
64	36.76399994	0	0	-0.267572403	1.747950315	-17.40500259	1.0
65	36.76399994	0	0	-0.2675341964	1.747829199	-17.40375137	1.0
66	36.76399994	0	0	-0.2674999535	1.747720838	-17.40263367	1.0
[LeftHandIndex3]
63	28.83100128	0	0	-0.05785399675	0.8203445673	-8.06811142	1.0
64	28.83100128	0	0	-0.05784132704	0.8202519417	-8.067202568	1.0
65	28.83100128	0	0	-0.05782490224	0.8201326132	-8.066030502	1.0
66	28.83100128	0	0	-0.05781035498	0.8200266361	-8.064990997	1.0
[LeftHandIndex4]
63	23.92700005	0	0	0	0	0	1.0
64	23.92700005	0	0	0	0	0	1.0
65	23.92700005	0	0	0	0	0	1.0
66	23.92700005	0	0	0	0	0	1.0
[LeftHandMiddle1]
63	95.33399963	0	0	-0.8300203085	2.599420547	-16.24302673	1.0
64	95.33399963	0	0	-0.8266122341	2.583910704	-16.19339752	1.0
65	95.33399963	0	0	-0.8229412436	2.567744493	-16.13992119	1.0
66	95.33399963	0	0	-0.819401741	2.551906824	-16.08836555	1.0
[LeftHandMiddle2]
63	36.98199844	0	0	-0.2672563195	1.74693346	-17.39455795	1.0
64	36.98199844	0	0	-0.2672551274	1.746933222	-17.39455605	1.0
65	36.98199844	0	0	-0.2672536373	1.746933341	-17.39455032	1.0
66	36.98199844	0	0	-0.2672522962	1.746933341	-17.39454842	1.0
[LeftHandMiddle3]
63	29.50900078	0	0	-0.2988803387	1.84481144	-18.40375328	1.0
64	29.50900078	0	0	-0.2988799214	1.844808698	-18.4037323	1.0
65	29.50900078	0	0	-0.2988771796	1.844798565	-18.40363693	1.0
66	29.50900078	0	0	-0.2988756299	1.844792008	-18.40357971	1.0
[LeftHandMiddle4]
63	28.3390007	0	0	0	0	0	1.0
64	28.3390007	0	0	0	0	0	1.0
65	28.3390007	0	0	0	0	0	1.0
66	28.3390007	0	0	0	0	0	1.0
[LeftHandRing1]
63	91.04499817	-0.4390000105	-18.65100098	-1.301675797	3.511211872	-22.6895237	1.0
64	91.04499817	-0.4390000105	-18.65100098	-1.280216098	3.493905544	-22.41154099	1.0
65	91.04499817	-0.4390000105	-18.65100098	-1.258128047	3.476093531	-22.12535477	1.0
66	91.04499817	-0.4390000105	-18.65100098	-1.236354113	3.458534002	-21.84326935	1.0
[LeftHandRing2]
63	31.54000092	0	0	-0.4086085558	2.146273375	-21.55233002	1.0
64	31.54000092	0	0	-0.4024541378	2.13055706	-21.38666916	1.0
65	31.54000092	0	0	-0.396081835	2.114279985	-21.21510696	1.0
66	31.54000092	0	0	-0.3898184896	2.098283291	-21.04649353	1.0
[LeftHandRing3]
63	29.37700081	0	0	-0.3024711907	1.855350018	-18.51302338	1.0
64	29.37700081	0	0	-0.2971327901	1.839250565	-18.34660339	1.0
65	29.37700081	0	0	-0.2916056514	1.822577715	-18.17425346	1.0
66	29.37700081	0	0	-0.2861728668	1.806191564	-18.00486946	1.0
[LeftHandRing4]
63	26.47500038	0	0	0	0	0	1.0
64	26.47500038	0	0	0	0	0	1.0
65	26.47500038	0	0	0	0	0	1.0
66	26.47500038	0	0	0	0	0	1.0
[LeftHandPinky1]
63	80.77799988	-4.887000084	-38.06099701	-1.980141878	5.093208313	-27.42472839	1.0
64	80.77799988	-4.887000084	-38.06099701	-1.94310379	5.117791176	-27.32646942	1.0
65	80.77799988	-4.887000084	-38.06099701	-1.904421568	5.143694401	-27.22538757	1.0
66	80.77799988	-4.887000084	-38.06099701	-1.866561294	5.168937683	-27.12571716	1.0
[LeftHandPinky2]
63	36	0	0	-0.2833276391	1.797388673	-17.91409874	1.0
64	36	0	0	-0.2815622091	1.791913033	-17.85765076	1.0
65	36	0	0	-0.2797108591	1.786171675	-17.79846191	1.0
66	36	0	0	-0.2779024541	1.780563116	-17.74064255	1.0
[LeftHandPinky3]
63	21.14200211	0	0	-0.2557820678	1.709876537	-17.01399994	1.0
64	21.14200211	0	0	-0.254104197	1.704374075	-16.95756149	1.0
65	21.14200211	0	0	-0.2523448467	1.698604345	-16.89838219	1.0
66	21.14200211	0	0	-0.2506262362	1.692968249	-16.84057236	1.0
[LeftHandPinky4]
63	19.75699997	0	0	0	0	0	1.0
64	19.75699997	0	0	0	0	0	1.0
65	19.75699997	0	0	0	0	0	1.0
66	19.75699997	0	0	0	0	0	1.0
[RightShoulder]
63	-45.70000076	109.4620056	-26.28000069	5.205303192	14.57536888	15.55903721	1.0
64	-45.70000076	109.4620056	-26.28000069	5.195455551	14.5387392	15.55358315	1.0
65	-45.70000076	109.4620056	-26.28000069	5.185696602	14.50274563	15.54701614	1.0
66	-45.70000076	109.4620056	-26.28000069	5.17589283	14.46643257	15.54100513	1.0
[RightArm]
63	-105.9280014	-5.248000145	-22.32099915	29.89978409	2.003295898	62.47290802	1.0
64	-105.9280014	-5.248000145	-22.32099915	30.03162193	2.032737255	62.56240082	1.0
65	-105.9280014	-5.248000145	-22.32099915	30.15614319	2.0677917	62.64323425	1.0
66	-105.9280014	-5.248000145	-22.32099915	30.28432274	2.100039721	62.72839737	1.0
[RightForeArm]
63	-278.414978	0	0	5.759507985e-06	6.641343594	-5.787411737e-06	1.0
64	-278.414978	0	0	3.629838602e-06	6.663081169	-8.449713278e-06	1.0
65	-278.414978	0	0	1.241363407e-06	6.68680954	-1.011643144e-05	1.0
66	-278.414978	0	0	-1.017709337e-06	6.709543228	-1.228094243e-05	1.0
[RightHand]
63	-283.2879944	0	0.0009999999311	-20.30799103	2.007618904	6.854371548	1.0
64	-283.2879944	0	0.0009999999311	-20.16793442	1.955522418	6.650602818	1.0
65	-283.2879944	0	0.0009999999311	-20.02680588	1.903915882	6.428035736	1.0
66	-283.2879944	0	0.0009999999311	-19.8862114	1.852064371	6.214867592	1.0
[RightHandPinky1]
63	-80.76699829	-4.885000229	-38.06000137	-1.651935577	-4.719829559	28.42251205	1.0
64	-80.76699829	-4.885000229	-38.06000137	-1.621039033	-4.700495243	28.00332069	1.0
65	-80.76699829	-4.885000229	-38.06000137	-1.58447063	-4.679228783	27.50683212	1.0
66	-80.76699829	-4.885000229	-38.06000137	-1.550738096	-4.658928871	27.04899216	1.0
[RightHandPinky2]
63	-36	0	0.0009999999311	-0.2134453058	-1.391041994	17.46601105	1.0
64	-36	0	0.0009999999311	-0.2132498324	-1.390418053	17.45791817	1.0
65	-36	0	0.0009999999311	-0.2130193561	-1.389682293	17.4483757	1.0
66	-36	0	0.0009999999311	-0.2128063887	-1.389002442	17.43955803	1.0
[RightHandPinky3]
63	-21.14200211	0	0	-0.192449525	-1.322409868	16.55957222	1.0
64	-21.14200211	0	0	-0.1922850013	-1.321854711	16.55242157	1.0
65	-21.14200211	0	0	-0.1920905709	-1.321198344	16.54397202	1.0
66	-21.14200211	0	0	-0.1919110864	-1.320592523	16.53617287	1.0
[RightHandPinky4]
63	-19.75699997	0	0	0	0	0	1.0
64	-19.75699997	0	0	0	0	0	1.0
65	-19.75699997	0	0	0	0	0	1.0
66	-19.75699997	0	0	0	0	0	1.0
[RightHandRing1]
63	-91.03599548	-0.4390000105	-18.65100098	-1.120256305	-3.253854275	21.60206032	1.0
64	-91.03599548	-0.4390000105	-18.65100098	-1.103022814	-3.163192272	21.34447289	1.0
65	-91.03599548	-0.4390000105	-18.65100098	-1.082669497	-3.057178497	21.04031754	1.0
66	-91.03599548	-0.4390000105	-18.65100098	-1.063876152	-2.95884037	20.7594471	1.0
[RightHandRing2]
63	-31.54000092	0	0	-0.306710422	-1.658798456	20.9499054	1.0
64	-31.54000092	0	0	-0.3060807586	-1.657150865	20.92811775	1.0
65	-31.54000092	0	0	-0.305421561	-1.655425191	20.90530205	1.0
66	-31.54000092	0	0	-0.3047771454	-1.653738618	20.88300133	1.0
[RightHandRing3]
63	-29.37700081	0	0	-0.2246318161	-1.426141262	17.90142441	1.0
64	-29.37700081	0	0	-0.2240721136	-1.424406528	17.87889671	1.0
65	-29.37700081	0	0	-0.2234837413	-1.422582865	17.85521317	1.0
66	-29.37700081	0	0	-0.2229097039	-1.420803666	17.83210754	1.0
[RightHandRing4]
63	-26.47500038	0	0	0	0	0	1.0
64	-26.47500038	0	0	0	0	0	1.0
65	-26.47500038	0	0	0	0	0	1.0
66	-26.47500038	0	0	0	0	0	1.0
[RightHandMiddle1]
63	-95.32500458	0	0	-0.7657858133	-2.331050873	16.07274818	1.0
64	-95.32500458	0	0	-0.748631835	-2.266724825	15.78996468	1.0
65	-95.32500458	0	0	-0.7286845446	-2.193099499	15.461236	1.0
66	-95.32500458	0	0	-0.7101339698	-2.124123812	15.15548038	1.0
[RightHandMiddle2]
63	-36.98199844	0	0	-0.2132801414	-1.390510917	17.43944931	1.0
64	-36.98199844	0	0	-0.2128519118	-1.389148593	17.42180252	1.0
65	-36.98199844	0	0	-0.2123966813	-1.387701154	17.40304565	1.0
66	-36.98199844	0	0	-0.2119549364	-1.386296391	17.38484192	1.0
[RightHandMiddle3]
63	-29.50900078	0	0	-0.2384488136	-1.470243812	18.44854164	1.0
64	-29.50900078	0	0	-0.2380000204	-1.468894124	18.43097496	1.0
65	-29.50900078	0	0	-0.2375233173	-1.467459917	18.41231155	1.0
66	-29.50900078	0	0	-0.2370605767	-1.466067791	18.39419746	1.0
[RightHandMiddle4]
63	-28.3390007	0	0.0009999999311	0	0	0	1.0
64	-28.3390007	0	0.0009999999311	0	0	0	1.0
65	-28.3390007	0	0.0009999999311	0	0	0	1.0
66	-28.3390007	0	0.0009999999311	0	0	0	1.0
[RightHandIndex1]
63	-91.08300018	-5.167999744	22.60099792	0.1389391422	0.910300076	8.382932663	1.0
64	-91.08300018	-5.167999744	22.60099792	0.1467372775	1.002986193	8.037382126	1.0
65	-91.08300018	-5.167999744	22.60099792	0.1560345888	1.110617638	7.629164696	1.0
66	-91.08300018	-5.167999744	22.60099792	0.164582327	1.210776567	7.252280712	1.0
[RightHandIndex2]
63	-36.76399994	0	0	-0.2112207115	-1.383956194	17.35466576	1.0
64	-36.76399994	0	0	-0.2116982341	-1.385477781	17.37432861	1.0
65	-36.76399994	0	0	-0.2120920867	-1.386728644	17.39048576	1.0
66	-36.76399994	0	0	-0.2125277668	-1.388114929	17.40839577	1.0
[RightHandIndex3]
63	-28.83100128	0	0	-0.04516396672	-0.6458637118	8.000538826	1.0
64	-28.83100128	0	0	-0.04538689181	-0.6474406719	8.020197868	1.0
65	-28.83100128	0	0	-0.04557097703	-0.6487368941	8.036352158	1.0
66	-28.83100128	0	0	-0.04577448964	-0.6501734853	8.054258347	1.0
[RightHandIndex4]
63	-23.92700005	0	0	0	0	0	1.0
64	-23.92700005	0	0	0	0	0	1.0
65	-23.92700005	0	0	0	0	0	1.0
66	-23.92700005	0	0	0	0	0	1.0
[RightHandThumb1]
63	-24.64799881	-15.72700024	26.82600021	-1.655278683	-0.8642016053	-1.35623467	1.0
64	-24.64799881	-15.72700024	26.82600021	-1.668918848	-0.6527557969	-2.158645868	1.0
65	-24.64799881	-15.72700024	26.82600021	-1.683456659	-0.4121324122	-3.086765766	1.0
66	-24.64799881	-15.72700024	26.82600021	-1.697545528	-0.1860977709	-3.952031136	1.0
[RightHandThumb2]
63	-32.29800034	-18.64699936	18.64699936	23.06210327	-24.55266953	-24.68841171	1.0
64	-32.29800034	-18.64699936	18.64699936	22.8987999	-24.42074013	-24.60591698	1.0
65	-32.29800034	-18.64699936	18.64699936	22.70044136	-24.2605114	-24.5057106	1.0
66	-32.29800034	-18.64699936	18.64699936	22.51960945	-24.11443138	-24.41436005	1.0
[RightHandThumb3]
63	-26.52600098	-15.31399918	15.31399918	-14.74079418	-6.410572529	-11.2897644	1.0
64	-26.52600098	-15.31399918	15.31399918	-14.68407059	-6.481710434	-11.30683517	1.0
65	-26.52600098	-15.31399918	15.31399918	-14.61624908	-6.566758156	-11.32723427	1.0
66	-26.52600098	-15.31399918	15.31399918	-14.55397606	-6.644851208	-11.3459692	1.0
[RightHandThumb4]
63	-19.54599953	-11.28499985	11.28499985	0	0	0	1.0
64	-19.54599953	-11.28499985	11.28499985	0	0	0	1.0
65	-19.54599953	-11.28499985	11.28499985	0	0	0	1.0
66	-19.54599953	-11.28499985	11.28499985	0	0	0	1.0
[LeftUpLeg]
63	82.07800293	-67.51699829	-15.99599934	-8.173024178	16.27890015	7.819168091	1.0
64	82.07800293	-67.51699829	-15.99599934	-8.20170784	16.26646614	7.798465729	1.0
65	82.07800293	-67.51699829	-15.99599934	-8.233868599	16.25397682	7.777581215	1.0
66	82.07800293	-67.51699829	-15.99599934	-8.26429081	16.24151611	7.7567873	1.0
[LeftLeg]
63	0	-443.7049866	2.845999956	12.27427101	1.167403698	4.547197342	1.0
64	0	-443.7049866	2.845999956	12.26951027	1.144965649	4.541165829	1.0
65	0	-443.7049866	2.845999956	12.26478481	1.123439074	4.535538197	1.0
66	0	-443.7049866	2.845999956	12.26004124	1.101456761	4.529708385	1.0
[LeftFoot]
63	0	-444.2789917	-29.8219986	1.160036087	0.652769506	-7.215773582	1.0
64	0	-444.2789917	-29.8219986	1.166214108	0.6546306014	-7.186390877	1.0
65	0	-444.2789917	-29.8219986	1.173678398	0.6565797329	-7.157128334	1.0
66	0	-444.2789917	-29.8219986	1.180499554	0.6584848762	-7.12780571	1.0
[LeftToeBase]
63	0	-87.28699493	107.1060028	-4.894453049	-3.868387466e-06	1.476066132e-06	1.0
64	0	-87.28699493	107.1060028	-4.902085304	-2.295047352e-06	9.885737882e-07	1.0
65	0	-87.28699493	107.1060028	-4.909123898	-1.95108953e-07	3.056270259e-07	1.0
66	0	-87.28699493	107.1060028	-4.91645956	1.641530275e-06	-2.795925411e-07	1.0
[RightUpLeg]
63	-82.07800293	-67.51699829	-15.99599934	0.1946419775	-10.43042183	3.425356627	1.0
64	-82.07800293	-67.51699829	-15.99599934	0.1607723534	-10.43047333	3.424789429	1.0
65	-82.07800293	-67.51699829	-15.99599934	0.1240898967	-10.42911339	3.426030636	1.0
66	-82.07800293	-67.51699829	-15.99599934	0.08881385624	-10.42845917	3.426367521	1.0
[RightLeg]
63	0	-443.7049866	2.861999989	7.888128757	-9.115987778	-4.452700138	1.0
64	0	-443.7049866	2.861999989	7.908023357	-9.144140244	-4.474367619	1.0
65	0	-443.7049866	2.861999989	7.926321983	-9.17325592	-4.496661663	1.0
66	0	-443.7049866	2.861999989	7.945418358	-9.201888084	-4.518642902	1.0
[RightFoot]
63	0	-444.2770081	-29.83799934	-3.856822014	-1.447764516	3.192962646	1.0
64	0	-444.2770081	-29.83799934	-3.829461813	-1.44592905	3.219702721	1.0
65	0	-444.2770081	-29.83799934	-3.800364494	-1.444158316	3.246566772	1.0
66	0	-444.2770081	-29.83799934	-3.772136211	-1.442355275	3.273368835	1.0
[RightToeBase]
63	0	-87.28699493	107.1060028	-7.267912865	5.989784768e-06	-4.590555847e-08	1.0
64	0	-87.28699493	107.1060028	-7.273061752	2.516967697e-06	8.49158468e-08	1.0
65	0	-87.28699493	107.1060028	-7.278227806	-1.052007292e-06	1.918200212e-07	1.0
66	0	-87.28699493	107.1060028	-7.283385754	-4.572903435e-06	3.106828217e-07	1.0
[EndOfFile]
